<svg width="832" height="189" viewBox="0 0 832 189" fill="none" xmlns="http://www.w3.org/2000/svg">
<path fill-rule="evenodd" clip-rule="evenodd" d="M2.594 2.36849L0 4.96248V73.3975C0 138.131 0.0989981 141.954 1.823 144.084C3.424 146.061 5.041 146.449 15.073 147.258C42.147 149.445 60.271 156.744 76.233 171.886C79.386 174.878 83.34 179.467 85.019 182.084C88.578 187.63 92.819 189.912 96.47 188.249C97.779 187.652 100.652 184.512 102.854 181.269C112.304 167.353 129.56 155.612 147.145 151.135C156.31 148.801 168.294 147.053 175.122 147.053C181.042 147.053 185.761 144.871 186.518 141.785C186.819 140.557 186.938 109.027 186.783 71.7145L186.5 3.87648L184.139 1.9645C179.324 -1.9335 155.113 0.246475 138.638 6.06047C121.793 12.0065 104.349 24.5745 95.771 36.9465L94.111 39.3395L91.369 35.9465C73.539 13.8835 48.349 1.68249 17.844 0.333485C5.224 -0.224515 5.182 -0.219511 2.594 2.36849ZM16 73.3915V131.73L26.25 133.017C47.919 135.738 69.745 144.913 81.75 156.35L85 159.446V106.36V53.2735L80.677 47.4015C69.001 31.5405 50.152 20.1825 29.539 16.5885C24.699 15.7445 19.672 15.0535 18.369 15.0535H16V73.3915ZM159.758 16.1385C150.667 17.4705 136.131 22.7795 128.396 27.5925C120.602 32.4425 108.697 44.3005 104.596 51.2995L101.982 55.7605L102.241 106.923L102.5 158.084L107.425 154.014C121.204 142.627 138.979 135.668 161.285 132.926L171 131.732V73.3935V15.0535L168.25 15.1755C166.738 15.2425 162.916 15.6755 159.758 16.1385ZM261.024 48.6565C245.59 52.8045 234.52 65.7255 231.985 82.5535C229.083 101.813 238.255 120.359 254.278 127.629C262.409 131.318 276.843 132.226 285.153 129.571C300.705 124.602 310.896 111.689 312.554 94.8545C315.555 64.3855 289.481 41.0095 261.024 48.6565ZM523 88.9525V129.053H530.5H538V115.183V101.314L551.25 100.836C565.846 100.309 569.349 99.3195 575.382 94.0235C589.134 81.9485 585.758 59.3075 569.07 51.6975C565.016 49.8495 562.156 49.5705 543.75 49.2325L523 48.8515V88.9525ZM260.929 63.8035C252.059 68.2965 247.017 77.4635 247.006 89.1215C246.99 104.737 256.448 116.322 270.378 117.749C278.135 118.543 283.489 116.66 288.907 111.233C295.023 105.106 297.447 97.8605 296.781 87.7025C295.443 67.2985 277.561 55.3795 260.929 63.8035ZM538 74.9675V88.0535L548.25 88.0495C556.717 88.0465 559.067 87.7005 561.763 86.0565C568.861 81.7285 569.947 71.2535 563.898 65.4535C560.976 62.6515 560.49 62.5425 549.437 62.2175L538 61.8815V74.9675ZM346.5 70.4425C344.85 71.1635 342.085 72.9455 340.356 74.4035C338.626 75.8605 337.029 77.0535 336.806 77.0535C336.584 77.0535 336.585 75.4785 336.81 73.5535L337.219 70.0535H329.609H322V111.553V153.053H329.5H337V138.061V123.066L341.523 126.519C355.302 137.036 376.064 128.752 381.143 110.71C382.769 104.937 382.447 92.9145 380.511 87.0855C378.484 80.9845 372.306 73.8645 366.673 71.1375C361.655 68.7085 351.288 68.3505 346.5 70.4425ZM406.5 71.3935C400.232 74.4285 394.766 80.0785 391.835 86.5535C390.049 90.4985 389.574 93.3475 389.582 100.053C389.595 110.932 392.18 117.232 399.233 123.574C410.957 134.114 431.135 133.636 440.835 122.588C444.194 118.763 446.671 114.391 445.91 113.631C445.682 113.402 442.718 113.101 439.324 112.963C433.648 112.731 432.864 112.965 429.542 115.882C426.513 118.542 425.122 119.053 420.916 119.053C412.857 119.053 407.11 114.945 405.176 107.803L404.161 104.053H425.725H447.289L446.728 96.6365C445.4 79.0795 436.288 69.9255 419.5 69.2795C412.689 69.0175 410.757 69.3315 406.5 71.3935ZM479.5 70.4055C477.85 71.1615 475.643 72.7415 474.595 73.9165C472 76.8275 471.266 76.6015 471.787 73.0535L472.227 70.0535H464.613H457V99.5535V129.053H464.443H471.886L472.193 108.47L472.5 87.8855L475.742 84.9905C477.526 83.3985 480.132 81.8075 481.535 81.4555C485.494 80.4615 491.134 83.1215 493.459 87.0795C495.323 90.2515 495.5 92.2265 495.5 109.801V129.048L502.816 129.051L510.133 129.053L509.816 105.803C509.461 79.6975 509.237 78.7855 501.661 72.6625C498.215 69.8775 497.039 69.5335 490.161 69.2955C485.252 69.1255 481.422 69.5235 479.5 70.4055ZM604.764 69.9935C597.023 72.4825 591.815 78.0615 590.473 85.3035L589.777 89.0535H596.413C602.374 89.0535 603.137 88.8245 603.91 86.8035C605.519 82.5965 608.713 80.6685 614.076 80.6685C620.215 80.6685 624.081 83.8515 624.337 89.1155C624.53 93.0695 623.871 93.3555 610.832 94.9965C593.733 97.1475 587 102.617 587 114.355C587 118.293 587.612 120.678 589.258 123.155C595.604 132.704 613.323 133.863 622.25 125.313L625 122.679V125.866V129.053H632.504H640.009L639.441 106.803C638.779 80.8785 637.942 77.8365 630.031 72.5905C626.016 69.9285 624.642 69.6005 616.531 69.3705C611.564 69.2295 606.269 69.5095 604.764 69.9935ZM662.539 71.8265C652.668 77.2525 647.353 88.2625 648.227 101.474C649.333 118.18 659.543 128.976 674.29 129.032C680.481 129.056 686.019 126.904 689.405 123.16C692.536 119.699 693.289 120.582 692.512 126.803C691.178 137.479 686.68 142.046 677.5 142.046C672.459 142.046 666 139.223 666 137.02C666 136.352 663.682 136.069 659.75 136.256L653.5 136.553L653.618 140.348C653.762 144.987 656.566 148.248 663.5 151.843C667.817 154.081 669.797 154.443 678 154.494C686.697 154.548 687.948 154.306 692.801 151.618C695.716 150.002 699.443 146.855 701.084 144.624C706.534 137.213 707 133.73 707 100.371V70.0535H700H693V73.5535C693 75.4785 692.798 77.0535 692.552 77.0535C692.305 77.0535 690.842 75.8685 689.302 74.4205C682.709 68.2255 671.133 67.1035 662.539 71.8265ZM734.748 70.4805C722.384 74.8925 715.007 88.0985 716.251 103.595C716.861 111.186 719.664 117.65 724.399 122.386C730.452 128.438 735.274 130.368 745.5 130.83C753.89 131.209 754.871 131.041 759.982 128.352C765.663 125.362 772 118.356 772 115.064C772 113.519 771.022 113.177 765.776 112.892C760.113 112.584 759.3 112.801 756.756 115.29C753.368 118.605 750.326 119.463 744.355 118.79C738.738 118.156 733.638 113.607 732.202 107.949L731.213 104.053H752.106H773V98.2355C773 80.4355 761.816 68.9725 744.572 69.0975C741.232 69.1215 736.812 69.7435 734.748 70.4805ZM793.5 70.9495C779.922 77.2355 778.016 92.7565 789.843 100.726C791.656 101.948 796.595 103.703 800.82 104.626C814.609 107.638 818.242 110.232 815.894 115.386C812.933 121.884 799.244 121.274 796.16 114.506C795.14 112.268 794.473 112.053 788.521 112.053C782.166 112.053 782 112.119 782 114.652C782 121.208 787.959 127.462 796.698 130.081C802.92 131.945 815.582 130.971 821.264 128.191C832.661 122.616 834.71 105.151 824.734 98.6145C823.434 97.7635 817.348 95.7935 811.209 94.2365C796.386 90.4775 792.598 86.8745 798.547 82.1955C804.296 77.6735 813.083 79.1635 815.299 85.0365C816.412 87.9845 816.595 88.0535 823.219 88.0535C831.093 88.0535 831.469 87.3855 827.75 80.0235C825.309 75.1925 820.818 71.6525 815.118 70.0695C809.145 68.4105 798.004 68.8645 793.5 70.9495ZM413.02 81.7565C409.245 83.7055 405 89.2335 405 92.2015C405 93.9125 406.026 94.0535 418.5 94.0535C433.487 94.0535 433.511 94.0405 430.414 87.5135C427.396 81.1525 419.349 78.4895 413.02 81.7565ZM739.5 81.6155C735.828 83.4715 733.166 86.9745 732.358 91.0145L731.75 94.0535H745.305H758.86L757.965 90.9305C756.569 86.0645 754.146 83.0125 750.454 81.4695C746.147 79.6705 743.273 79.7085 739.5 81.6155ZM346.314 82.5175C341.028 84.8165 337.765 90.8945 337.286 99.3325C336.967 104.946 337.279 107.328 338.688 110.033C341.303 115.054 346.28 118.053 352 118.053C361.304 118.053 367.375 110.761 367.375 99.5855C367.375 85.9505 357.262 77.7555 346.314 82.5175ZM672.418 82.0225C667.635 83.9575 663.011 92.3275 663.011 99.0535C663.011 103.917 665.147 109.133 668.519 112.506C675.563 119.549 686.001 117.895 690.8 108.976C692.832 105.197 693.098 103.634 692.622 98.2475C691.98 90.9825 689.116 85.1435 685.001 82.7135C682.025 80.9555 675.889 80.6185 672.418 82.0225ZM613.903 104.066C608.344 105.006 603.465 107.399 602.621 109.598C601.316 112.998 602.058 115.954 604.75 118.079C606.969 119.831 608.435 120.162 612.346 119.79C619.033 119.154 623.992 114.307 624.739 107.678L625.26 103.053L621.88 103.171C620.021 103.235 616.431 103.638 613.903 104.066Z" fill="#11120D"/>
</svg>
